<svg width="78" height="32" viewBox="0 0 78 32" fill="none" xmlns="http://www.w3.org/2000/svg">
<path d="M52.5 27.126H54.807C55.4894 27.126 55.8941 27.2487 56.1698 27.5457C56.5031 27.9 56.6122 28.3197 56.6122 29.2245C56.6122 30.4836 56.5685 30.8815 56.388 31.222C56.2075 31.5843 55.9377 31.7862 55.5251 31.8812C55.3228 31.9248 55.0748 31.9545 54.8943 31.9545H52.502V27.126H52.5ZM54.6761 31.317C55.1621 31.317 55.4735 31.224 55.6263 31.0201C55.8147 30.7746 55.8663 30.4618 55.8663 29.5788C55.8663 28.587 55.8227 28.3118 55.6421 28.0663C55.4894 27.8565 55.2355 27.7694 54.7574 27.7694H53.2419V31.315H54.6781L54.6761 31.317Z" fill="black"/>
<path d="M58.3727 31.9545H57.6328V27.126H58.3727V31.9545Z" fill="black"/>
<path d="M63.5026 29.472C63.5165 29.7036 63.5165 29.769 63.5165 30.058C63.5165 30.933 63.4868 31.1646 63.336 31.4339C63.2051 31.6655 63.0027 31.8239 62.7131 31.9051C62.5029 31.9704 62.0962 32.0001 61.4515 32.0001C60.7691 32.0001 60.4874 31.9645 60.1978 31.8477C59.8209 31.6952 59.6166 31.4636 59.4936 31.0439C59.4222 30.8123 59.4004 30.5509 59.4004 30.0026C59.4004 28.6484 59.4083 28.5257 59.4877 28.1496C59.6047 27.621 59.8943 27.3022 60.3724 27.1716C60.5906 27.1062 60.8862 27.0845 61.4971 27.0845C62.5346 27.0845 62.7449 27.1142 63.0781 27.3161C63.2586 27.4329 63.4034 27.6487 63.455 27.8882C63.4907 28.0763 63.5066 28.2129 63.5066 28.5534H62.7667C62.7449 27.7714 62.6516 27.714 61.4317 27.714C60.6699 27.714 60.4021 27.7932 60.2712 28.0763C60.17 28.3 60.1482 28.5693 60.1482 29.5235C60.1482 30.5509 60.17 30.7905 60.2712 31.0083C60.4021 31.2914 60.6838 31.3705 61.5547 31.3705C62.1359 31.3705 62.3957 31.3349 62.5564 31.2181C62.7092 31.1171 62.7806 30.8043 62.7806 30.2837C62.7806 30.248 62.7806 30.153 62.7726 30.0521H61.4019V29.472H63.5046H63.5026Z" fill="black"/>
<path d="M65.2262 31.9545H64.4863V27.126H65.2262V31.9545Z" fill="black"/>
<path d="M68.2568 31.9545H67.5169V27.7931H66.0371V27.1279H69.7585V27.801L68.2568 27.7931V31.9545Z" fill="black"/>
<path d="M70.7496 30.9844L70.4164 31.9545H69.6328L71.3229 27.126H72.404L74.1159 31.9545H73.3463L73.0051 30.9844H70.7496ZM71.8744 27.706L70.9381 30.4202H72.8245L71.8744 27.706Z" fill="black"/>
<path d="M75.6032 31.2873H77.9756V31.9525H74.8652V27.124H75.6052V31.2854L75.6032 31.2873Z" fill="black"/>
<path d="M12.759 10.637C15.6988 11.1854 16.4724 12.2168 16.4724 15.6338C16.4724 20.6939 14.9212 21.8877 8.36515 21.8877C1.80911 21.8877 0 20.7592 0 15.6991C0 12.2504 0.839091 11.122 3.74716 10.6053V10.54C2.42206 10.2173 1.87457 10.0233 1.38857 9.57189C0.646677 8.92651 0.289615 7.60604 0.289615 5.67187C0.289615 3.512 0.741891 2.06088 1.64645 1.28879C2.80888 0.289039 4.29465 0 8.20248 0C12.1103 0 13.6616 0.257363 14.7922 1.22544C15.7285 2.06286 16.2145 3.54566 16.2145 5.73917C16.2145 8.89879 15.4707 9.93022 12.759 10.5736V10.639V10.637ZM3.71542 12.9255C3.3286 13.4422 3.2314 13.9569 3.2314 15.3764C3.2314 18.8251 3.58648 19.0844 8.39887 19.0844C12.63 19.0844 13.243 18.6013 13.243 15.3447C13.243 12.4108 12.63 11.9931 8.10727 11.9931C5.23293 11.9931 4.26291 12.1871 3.71343 12.9275L3.71542 12.9255ZM3.52102 5.96288C3.52102 7.47736 3.68169 8.18807 4.19943 8.67112C4.74891 9.18585 5.65346 9.31651 8.72221 9.31651C12.4039 9.31651 12.9851 8.86514 12.9851 5.96486C12.9851 3.06459 12.5328 2.7419 8.26993 2.7419C4.00701 2.7419 3.52102 2.99926 3.52102 5.96486V5.96288Z" fill="black"/>
<path d="M32.9914 10.637C35.9312 11.1854 36.7048 12.2168 36.7048 15.6338C36.7048 20.6939 35.1536 21.8877 28.5976 21.8877C22.0415 21.8877 20.2324 20.7592 20.2324 15.6991C20.2324 12.2504 21.0715 11.122 23.9796 10.6053V10.54C22.6545 10.2173 22.107 10.0233 21.621 9.57189C20.8791 8.92651 20.522 7.60604 20.522 5.67187C20.522 3.512 20.9743 2.06088 21.8789 1.28879C23.0413 0.289039 24.5271 0 28.4349 0C32.3427 0 33.894 0.257363 35.0247 1.22544C35.961 2.06286 36.447 3.54566 36.447 5.73917C36.447 8.89879 35.7031 9.93022 32.9914 10.5736V10.639V10.637ZM23.9478 12.9255C23.561 13.4422 23.4638 13.9569 23.4638 15.3764C23.4638 18.8251 23.8189 19.0844 28.6313 19.0844C32.8625 19.0844 33.4754 18.6013 33.4754 15.3447C33.4754 12.4108 32.8625 11.9931 28.3397 11.9931C25.4654 11.9931 24.4953 12.1871 23.9478 12.9275V12.9255ZM23.7534 5.96288C23.7534 7.47736 23.9141 8.18807 24.4319 8.67112C24.9813 9.18585 25.8859 9.31651 28.9546 9.31651C32.6363 9.31651 33.2175 8.86514 33.2175 5.96486C33.2175 3.06459 32.7653 2.7419 28.5024 2.7419C24.2394 2.7419 23.7534 2.99926 23.7534 5.96486V5.96288Z" fill="black"/>
<path d="M74.2863 10.637C77.2261 11.1854 77.9998 12.2168 77.9998 15.6338C77.9998 20.6939 76.4485 21.8877 69.8925 21.8877C63.3365 21.8877 61.5273 20.7592 61.5273 15.6991C61.5273 12.2504 62.3664 11.122 65.2745 10.6053V10.54C63.9494 10.2173 63.4019 10.0233 62.9159 9.57189C62.174 8.92651 61.817 7.60604 61.817 5.67187C61.817 3.512 62.2692 2.06088 63.1738 1.28879C64.3362 0.289039 65.822 0 69.7298 0C73.6377 0 75.1889 0.257363 76.3196 1.22544C77.2559 2.06286 77.7419 3.54566 77.7419 5.73917C77.7419 8.89879 76.998 9.93022 74.2863 10.5736V10.639V10.637ZM65.2428 12.9255C64.8559 13.4422 64.7587 13.9569 64.7587 15.3764C64.7587 18.8251 65.1138 19.0844 69.9262 19.0844C74.1574 19.0844 74.7703 18.6013 74.7703 15.3447C74.7703 12.4108 74.1574 11.9931 69.6346 11.9931C66.7603 11.9931 65.7903 12.1871 65.2428 12.9275V12.9255ZM65.0484 5.96288C65.0484 7.47736 65.209 8.18807 65.7268 8.67112C66.2763 9.18585 67.1808 9.31651 70.2496 9.31651C73.9313 9.31651 74.5125 8.86514 74.5125 5.96486C74.5125 3.06459 74.0602 2.7419 69.7973 2.7419C65.5344 2.7419 65.0484 2.99926 65.0484 5.96486V5.96288Z" fill="black"/>
<path d="M54.9745 0.191895H52.2192C52.0636 0.191895 51.9375 0.317752 51.9375 0.47301V3.07237C51.9375 3.22763 52.0636 3.35349 52.2192 3.35349H54.9745C55.1301 3.35349 55.2562 3.22763 55.2562 3.07237V0.47301C55.2562 0.317752 55.1301 0.191895 54.9745 0.191895Z" fill="#20D296"/>
<path d="M51.0707 4.08187V7.08113C51.0707 7.23555 50.9437 7.36027 50.789 7.36027H48.0317C47.877 7.36027 47.75 7.23555 47.75 7.08113V4.08187C47.75 3.92746 47.877 3.80273 48.0317 3.80273H50.789C50.9437 3.80273 51.0707 3.92746 51.0707 4.08187Z" fill="#5CBAAD"/>
<path d="M46.9632 8.13656V11.999C46.9632 12.1534 46.8382 12.2781 46.6815 12.2781H43.9242C43.7695 12.2781 43.6445 12.1534 43.6445 11.999V8.13656C43.6445 7.98214 43.7695 7.85742 43.9242 7.85742H46.6815C46.8382 7.85742 46.9632 7.98214 46.9632 8.13656Z" fill="#40827B"/>
<path d="M57.7918 16.0693H55.2626V8.13659C55.2626 7.98217 55.1377 7.85547 54.9809 7.85547H52.2157C52.061 7.85547 51.934 7.98019 51.934 8.13659V16.0693H44.1084C43.7315 16.0515 43.432 15.7446 43.432 15.3645V13.5016C43.432 13.3472 43.307 13.2205 43.1503 13.2205H40.393C40.2383 13.2205 40.1113 13.3452 40.1113 13.5016V16.7147C40.1113 17.8174 41.006 18.7102 42.1109 18.7102H51.932V21.4105C51.932 21.565 52.057 21.6917 52.2137 21.6917H54.979C55.1337 21.6917 55.2606 21.5669 55.2606 21.4105V18.7102H57.7898C57.9445 18.7102 58.0715 18.5855 58.0715 18.4291V16.3464C58.0715 16.192 57.9465 16.0653 57.7898 16.0653L57.7918 16.0693Z" fill="black"/>
</svg>
